<?xml version="1.0" encoding="utf-8"?>
<!-- Generator: Adobe Illustrator 27.3.1, SVG Export Plug-In . SVG Version: 6.00 Build 0)  -->
<svg version="1.1" id="Layer_1" xmlns="http://www.w3.org/2000/svg" xmlns:xlink="http://www.w3.org/1999/xlink" x="0px" y="0px"
	 viewBox="0 0 1080 1080" style="enable-background:new 0 0 1080 1080;" xml:space="preserve">
<style type="text/css">
	.st0{fill:#FFFFFF;}
	.st1{fill:url(#SVGID_1_);stroke:#F7B874;stroke-miterlimit:10;}
	
		.st2{fill:url(#SVGID_00000109022734895995233040000006541683227956245672_);stroke:#F7B874;stroke-width:0.75;stroke-miterlimit:10;}
	.st3{fill:url(#SVGID_00000098201904616590140690000014951487341567101587_);stroke:#F7B874;stroke-miterlimit:10;}
	.st4{fill:url(#SVGID_00000134936933772894089070000004049309112794064037_);}
	.st5{fill:url(#SVGID_00000149351371068661182570000014202417675327397796_);}
	.st6{fill:url(#SVGID_00000093895135667431854110000011783423780388153732_);}
</style>
<g>
	<linearGradient id="SVGID_1_" gradientUnits="userSpaceOnUse" x1="503.0125" y1="706.9252" x2="767.6125" y2="442.3252">
		<stop  offset="0" style="stop-color:#885B16"/>
		<stop  offset="0.0571" style="stop-color:#8F611A"/>
		<stop  offset="0.1383" style="stop-color:#A17025"/>
		<stop  offset="0.2339" style="stop-color:#C08A37"/>
		<stop  offset="0.3397" style="stop-color:#EAAE4F"/>
		<stop  offset="0.3508" style="stop-color:#EFB252"/>
		<stop  offset="0.5079" style="stop-color:#F4C786"/>
		<stop  offset="0.6597" style="stop-color:#FFDFA0"/>
		<stop  offset="0.8953" style="stop-color:#AA7220"/>
		<stop  offset="0.9465" style="stop-color:#A1690E"/>
		<stop  offset="1" style="stop-color:#9A6100"/>
	</linearGradient>
	<path class="st1" d="M717.41,392.12v3.21c0,0-43.07-3.21-74.7,60.04l-82.87,230.28c-1.36,6.97-1.77,16.65,4.86,21.14h78.68
		c54.83-25.63,71.53-76.05,72.51-79.16l-19.09,79.16l-0.98,4.11H506.99l1.47-4.11l3.18-8.88L617.7,401.46l3.33-9.34H717.41z"/>
	
		<linearGradient id="SVGID_00000083811358160653441510000002144031733637332408_" gradientUnits="userSpaceOnUse" x1="365.8888" y1="583.3887" x2="503.5239" y2="445.7536">
		<stop  offset="0" style="stop-color:#885B16"/>
		<stop  offset="0.0571" style="stop-color:#8F611A"/>
		<stop  offset="0.1383" style="stop-color:#A17025"/>
		<stop  offset="0.2339" style="stop-color:#C08A37"/>
		<stop  offset="0.3397" style="stop-color:#EAAE4F"/>
		<stop  offset="0.3508" style="stop-color:#EFB252"/>
		<stop  offset="0.5079" style="stop-color:#F4C786"/>
		<stop  offset="0.6597" style="stop-color:#FFDFA0"/>
		<stop  offset="0.8953" style="stop-color:#AA7220"/>
		<stop  offset="0.9465" style="stop-color:#A1690E"/>
		<stop  offset="1" style="stop-color:#9A6100"/>
	</linearGradient>
	
		<path style="fill:url(#SVGID_00000083811358160653441510000002144031733637332408_);stroke:#F7B874;stroke-width:0.75;stroke-miterlimit:10;" d="
		M516.87,658.85l-0.11,0.31l-17.04,47.63l-1.48,4.12h-4.38l-0.12,0.34l-0.14-0.34l-1.72-4.12l-126.1-303.23c0,0-1.4-5.15-5.1-11.1
		c-0.06-0.1-0.13-0.2-0.19-0.31c-0.94-1.62-2.16-3.34-3.75-5.11c-0.02-0.02-0.03-0.05-0.06-0.07c-5.85-6.51-16.55-13.56-36.05-18.21
		h105.88c0,0-13.83,0.41-17.24,13.7c-3.64,11.99,5.36,31.14,5.36,31.14l99.77,239.91L516.87,658.85z"/>
	<g>
		
			<linearGradient id="SVGID_00000070119765726000598850000011556505560623992969_" gradientUnits="userSpaceOnUse" x1="292.3704" y1="754.1683" x2="787.7797" y2="258.759">
			<stop  offset="0" style="stop-color:#885B16"/>
			<stop  offset="0.0571" style="stop-color:#8F611A"/>
			<stop  offset="0.1383" style="stop-color:#A17025"/>
			<stop  offset="0.2339" style="stop-color:#C08A37"/>
			<stop  offset="0.3397" style="stop-color:#EAAE4F"/>
			<stop  offset="0.3508" style="stop-color:#EFB252"/>
			<stop  offset="0.5079" style="stop-color:#F4C786"/>
			<stop  offset="0.6597" style="stop-color:#FFDFA0"/>
			<stop  offset="0.8953" style="stop-color:#AA7220"/>
			<stop  offset="0.9465" style="stop-color:#A1690E"/>
			<stop  offset="1" style="stop-color:#9A6100"/>
		</linearGradient>
		<path style="fill:url(#SVGID_00000070119765726000598850000011556505560623992969_);stroke:#F7B874;stroke-miterlimit:10;" d="
			M851.06,323.33c-23.82-13.81-49.31-27.58-73.93-39.74c-49.16-24.56-100.36-47.68-150.85-69.28
			c-25.37-10.88-51.84-21.85-77.68-32.18c-5.57-2.23-11.79-2.22-17.35,0.02c-70.73,28.52-141.1,58.96-209.72,92.22
			c-31.26,15.32-62.6,31.55-92.98,49.19c-7.3,4.24-11.77,12.07-11.65,20.51c0.59,41.51,1.59,85.42,2.29,126.51
			c0.46,24.64,0.96,51.03,3.89,75.48c5.34,47.11,17.06,93.8,36.42,137.14c43.13,98.71,127.7,176.75,227.37,216.15
			c1.82,0.72,3.03-1.87,1.33-2.82c-104.87-58.05-183.49-150.58-212.56-268.93c-11.01-44.38-14.98-90.26-13.68-135.94
			c0.98-43.2,1.75-89.47,2.46-133.18c8.14-4.34,16.91-8.94,23.84-12.32c78.91-39.36,160.91-73.78,242.51-107.27l9.21-3.7
			c4.64,1.87,9.22,3.71,9.22,3.71c78.53,32.16,157.29,65.45,233.47,102.77c10.27,5.1,21.88,11.03,32.82,16.82
			c0.36,23.31,0.74,46.61,1.19,69.92c0.34,23.98,1.48,60.04,1.48,83.7c-0.2,40.55-4.92,81.11-15.16,120.36
			c-26.2,101.74-89.92,185.43-177.12,243.27c-11.11,7.44-22.51,14.37-34.2,20.84c-1.7,0.94-0.48,3.53,1.33,2.81
			c12.56-4.98,24.89-10.61,36.92-16.75c145.24-74.22,224.03-213.64,230.01-374.74c1.51-53.59,2.36-110.32,3.19-163.83l0,0
			c0.13-8.49-4.37-16.38-11.74-20.59L851.06,323.33z"/>
	</g>
</g>
</svg>
